<svg version="1.2" xmlns="http://www.w3.org/2000/svg" xmlns:xlink="http://www.w3.org/1999/xlink" overflow="visible" preserveAspectRatio="none" viewBox="0 0 66 66" width="22" height="22" id="Layer_35_1572527956927"><g transform="translate(1, 1)"><circle r="6" cy="17" cx="13" vector-effect="non-scaling-stroke" style="fill: rgb(28, 117, 153);"/><path d="m33 32.534c0-.569-.311-1.071-.811-1.321l-10.525-5.263c-1.243-.621-2.635-.95-4.024-.95h-7.64c-3.859 0-7 3.14-7 7v10c0 1.654 1.346 3 3 3v-15h2v29c0 1.103.897 2 2 2s2-.897 2-2v-19h2v19c0 1.103.897 2 2 2s2-.897 2-2v-30h2.217l10.711 4.869c.191.087.395.131.606.131.809 0 1.466-.658 1.466-1.466z" vector-effect="non-scaling-stroke" style="fill: rgb(28, 117, 153);"/><path d="m47 35.382v-4.432c-1.395-.093-2.735-.375-4-.824v7.257z" vector-effect="non-scaling-stroke" style="fill: rgb(28, 117, 153);"/><path d="m53 37.382v-7.257c-1.265.449-2.605.732-4 .824v4.432z" vector-effect="non-scaling-stroke" style="fill: rgb(28, 117, 153);"/><path d="m48 29c7.168 0 13-5.832 13-13s-5.832-13-13-13-13 5.832-13 13 5.832 13 13 13zm0-24c6.065 0 11 4.935 11 11s-4.935 11-11 11-11-4.935-11-11 4.935-11 11-11z" vector-effect="non-scaling-stroke" style="fill: rgb(28, 117, 153);"/><path d="m48 25c4.963 0 9-4.038 9-9s-4.037-9-9-9-9 4.038-9 9 4.037 9 9 9zm5-10h2v2h-2zm-5 2c-1.654 0-3-1.346-3-3v-3h2v-2h2v2.184c1.161.414 2 1.514 2 2.816h-2c0-.551-.448-1-1-1h-1v1c0 .551.448 1 1 1 1.654 0 3 1.346 3 3v3h-2v2h-2v-2.184c-1.161-.414-2-1.514-2-2.816h2c0 .551.448 1 1 1h1v-1c0-.551-.448-1-1-1zm-7-2h2v2h-2z" vector-effect="non-scaling-stroke" style="fill: rgb(28, 117, 153);"/><path d="m37 53h23 .802l2.175-9.783.023-2.217h-28.193l-1.602-5.448c-.498.277-1.062.448-1.671.448-.099 0-.194-.023-.291-.031l1.48 5.031h-.001l3.025 10.283c-1.028.476-1.747 1.511-1.747 2.717 0 1.199.712 2.228 1.731 2.708-.457.65-.731 1.438-.731 2.292 0 2.206 1.794 4 4 4s4-1.794 4-4c0-.732-.212-1.409-.556-2h11.113c-.345.591-.557 1.268-.557 2 0 2.206 1.794 4 4 4s4-1.794 4-4-1.794-4-4-4h-20c-.552 0-1-.449-1-1s.448-1 1-1zm16-8h2v4h-2zm-6 0h2v4h-2zm-6 0h2v4h-2z" vector-effect="non-scaling-stroke" style="fill: rgb(28, 117, 153);"/></g></svg>