<svg version="1.2" xmlns="http://www.w3.org/2000/svg" xmlns:xlink="http://www.w3.org/1999/xlink" overflow="visible" preserveAspectRatio="none" viewBox="0 0 24 24" width="28" height="28"><g><path xmlns:default="http://www.w3.org/2000/svg" id="globe" d="M8,5.08C6.79,5.78,5.78,6.79,5.08,8C4.37,9.21,3.99,10.59,4,12c-0.01,1.41,0.36,2.79,1.07,4  c0.7,1.21,1.71,2.22,2.93,2.92c1.21,0.71,2.59,1.09,4,1.08c1.41,0.01,2.79-0.36,4-1.07c1.21-0.7,2.22-1.71,2.92-2.93  c0.71-1.21,1.09-2.59,1.08-4c0.01-1.41-0.36-2.79-1.07-4c-0.7-1.21-1.71-2.22-2.93-2.92C14.79,4.37,13.41,3.99,12,4  C10.59,3.99,9.21,4.37,8,5.08z M14.87,9.43c0.12-0.1,0.27-0.15,0.43-0.13c0.15,0.04,0.18,0.1,0.07,0.17c-0.04,0.01-0.07,0.01-0.11,0  h-0.12l0.16,0.08c0.03,0.03,0.03,0.07,0,0.1c0,0,0,0,0,0c0.11,0.06,0.13,0.13,0.06,0.21c-0.08,0.08-0.2,0.13-0.32,0.11l0,0  l-0.18,0.11l-0.14,0.05c-0.06,0.02-0.12,0.05-0.16,0.09c-0.01,0.04-0.01,0.08,0,0.12c0,0.04,0,0.08,0,0.12c0,0,0,0-0.08,0  c-0.05,0.06-0.12,0.09-0.19,0.1c-0.08,0.01-0.15,0.05-0.21,0.11c0.05,0.04,0.05,0.11,0.02,0.15c0,0.01-0.01,0.01-0.02,0.02  c-0.04,0.06-0.12,0.08-0.18,0.04c-0.02-0.01-0.03-0.02-0.04-0.04c-0.04,0.02-0.07,0.06-0.08,0.1c-0.01,0.05-0.04,0.08-0.08,0.11  c0.05,0.07,0.05,0.13,0,0.17l0,0l0.08,0.05h0.05c-0.02,0.05-0.06,0.08-0.11,0.09c0.03,0.14-0.04,0.29-0.16,0.36l-0.13,0.08L13.28,12  H13.2c-0.06,0.05-0.12,0.12-0.16,0.19c-0.03,0.06-0.03,0.13,0,0.19c0.04,0.07,0.11,0.12,0.19,0.12v0.4v0.13c0,0.05,0,0.1,0,0.15  c0.02,0.03,0.02,0.07,0,0.1c-0.04,0.01-0.07,0.01-0.11,0c-0.11-0.13-0.18-0.29-0.2-0.46c-0.02-0.09-0.06-0.18-0.12-0.25l-0.09,0.07  h-0.08h-0.06l-0.07-0.06c-0.06-0.03-0.12-0.04-0.18-0.05c-0.06,0-0.11-0.02-0.16-0.05c-0.17,0.13-0.27,0.1-0.3-0.09  c-0.02,0.05-0.02,0.09,0,0.14v0.1c-0.05,0.09-0.12,0.09-0.23,0c-0.09-0.04-0.2-0.04-0.29,0c-0.1,0.03-0.2,0.03-0.3,0l0,0l0,0  c0,0.02,0,0.04,0,0.06l0,0l0,0l0,0l-0.1,0.11l-0.09,0.1c0.04,0.08,0.06,0.17,0.06,0.26c0,0.06,0,0.15,0,0.26  c-0.01,0.09-0.01,0.19,0,0.28c0.01,0.14,0.04,0.27,0.1,0.39c0.05,0.12,0.13,0.22,0.23,0.3c0.16,0.05,0.34,0.05,0.5,0  c0.03-0.02,0.07-0.04,0.09-0.07c0.02-0.04,0.04-0.08,0.05-0.12v-0.11c0.03-0.12,0.14-0.21,0.27-0.21c0.06-0.02,0.12-0.02,0.18,0  c0.02,0.03,0.02,0.07,0,0.1c0.01,0.04,0.01,0.09,0,0.13l-0.08,0.15c-0.02,0.04-0.04,0.08-0.06,0.12c0,0.08,0,0.15,0,0.23  c0,0.06,0,0.12,0,0.18h0.16c0-0.02,0-0.05,0-0.07v-0.06c0.04,0.06,0.1,0.09,0.17,0.09c0.07,0.01,0.14-0.02,0.17-0.08l0.12,0.16  c0.05,0.06,0.09,0.13,0.11,0.21v0.14c0.01,0.04,0.01,0.09,0,0.13c-0.03,0.02-0.07,0.02-0.1,0c-0.01,0.03-0.01,0.05,0,0.08v0.09v0.09  v0.06c0.06,0.18,0.26,0.28,0.44,0.22c0.02-0.01,0.05-0.02,0.07-0.03c0.03,0.13-0.03,0.27-0.15,0.33c-0.08,0.01-0.15-0.03-0.19-0.1  c-0.02-0.01-0.04-0.03-0.06-0.05c-0.01,0.04-0.04,0.07-0.07,0.09c-0.06-0.06-0.12-0.11-0.19-0.16s-0.13-0.1-0.19-0.16l-0.06-0.09  l-0.09-0.15c-0.03-0.05-0.06-0.1-0.08-0.16c0,0,0-0.07,0-0.08c-0.2,0.05-0.4,0.01-0.57-0.11c-0.09-0.05-0.16-0.11-0.23-0.18  c-0.06-0.1-0.18-0.16-0.3-0.16h-0.14h-0.15c-0.06,0.01-0.11,0.01-0.17,0l-0.22-0.12l-0.19-0.11l-0.14-0.07L10,14.45  c-0.05-0.03-0.09-0.06-0.13-0.1c-0.04-0.04-0.07-0.09-0.09-0.14C9.75,14.14,9.72,14.07,9.7,14c-0.01-0.09-0.04-0.19-0.08-0.27  c-0.05-0.07-0.11-0.14-0.18-0.2c-0.05-0.06-0.13-0.1-0.21-0.11c0.05,0,0.05-0.05,0-0.14c-0.04-0.1-0.09-0.19-0.15-0.28L9,12.9  l-0.18-0.2c-0.05-0.06-0.09-0.12-0.12-0.19c-0.03-0.06-0.03-0.12,0-0.18l0,0H8.62H8.53H8.47c0,0.05,0,0.1,0,0.15  c0.01,0.06,0.03,0.11,0.06,0.16l0.18,0.3c0.14,0.19,0.23,0.41,0.25,0.65c-0.02,0.02-0.06,0.02-0.08,0c-0.01-0.04-0.01-0.07,0-0.11  c0-0.03,0-0.07,0-0.1c-0.04-0.06-0.09-0.11-0.16-0.14c-0.07-0.03-0.12-0.08-0.16-0.15H8.51c0-0.09-0.04-0.18-0.11-0.24  c-0.06-0.05-0.1-0.13-0.1-0.21c-0.07-0.06-0.12-0.15-0.15-0.24c0-0.14-0.04-0.28-0.1-0.4c-0.03-0.04-0.06-0.08-0.1-0.11l-0.16-0.1  L7.67,11.7l-0.08-0.1c-0.23-0.28-0.3-0.43-0.21-0.45c-0.09,0-0.17-0.07-0.22-0.2c-0.05-0.11-0.07-0.24-0.06-0.36l0,0  c0.01-0.08,0.01-0.16,0-0.24c-0.01-0.12-0.01-0.25,0-0.37c0-0.11,0.03-0.17,0.1-0.17c0.1,0-0.09,0-0.11-0.13  c-0.02-0.06-0.02-0.13,0-0.19c0,0,0,0,0.09,0l0.1,0.13c0.08-0.03,0.12-0.11,0.1-0.19C7.31,9.35,7.24,9.28,7.16,9.21  c-0.15-0.1-0.3-0.2-0.46-0.28c0.05-0.06,0.05-0.14,0-0.2c-0.07,0.04-0.11,0.04-0.12,0c-0.01-0.04-0.01-0.07,0-0.11  c0-0.04-0.02-0.07-0.05-0.09C6.48,8.51,6.44,8.49,6.41,8.45C7,7.5,7.82,6.71,8.8,6.16H9c0.06,0.01,0.11,0.02,0.16,0.05l0.18,0.11  l0.12,0.1c0.01-0.07-0.01-0.14-0.05-0.19c0.06-0.07,0.14-0.11,0.23-0.12c0.1-0.03,0.21-0.03,0.31,0C9.89,6.02,9.82,5.93,9.74,5.85  L9.69,5.9C9.54,5.87,9.37,5.9,9.25,6h-0.1L9,6.11c-0.04,0.01-0.08,0.01-0.12,0c0.32-0.17,0.65-0.32,1-0.43L10,5.78l0.11,0.1l0,0  c-0.03,0.07-0.03,0.14,0,0.21c0.03,0.05,0.08,0.08,0.14,0.08h0.15h0.17h0.1c0.22,0,0.31-0.02,0.26-0.06  c0.03,0.05,0.05,0.11,0.07,0.17c0.02,0.07,0.05,0.13,0.09,0.18c0.03-0.04,0.03-0.11,0-0.15c-0.02-0.05-0.02-0.1,0-0.15h0.06h0.12  h0.09c0,0,0.04-0.16-0.06-0.26h-0.09h-0.12L11,5.77c-0.03-0.02-0.05-0.05-0.05-0.08c0.01-0.04,0.02-0.08,0.05-0.12  c0.06-0.02,0.14-0.02,0.2,0c0.07,0,0.14,0.02,0.21,0.05c0.19,0.11,0.21,0.2,0.08,0.28c0.09,0.01,0.17,0.04,0.25,0.08  c0.1,0.01,0.14,0.05,0.11,0.12c0.02-0.08,0.08-0.14,0.15-0.16c0.05,0.03,0.09,0.08,0.1,0.14c0.02,0.05,0.04,0.1,0.06,0.14  c0.05,0.07,0.11,0.09,0.17,0.05c0.06-0.05,0.12-0.11,0.17-0.18c0.03-0.04,0.07-0.07,0.11-0.09c-0.07,0-0.07-0.03,0-0.08  c0.08-0.06,0.18-0.08,0.28-0.05c0.03,0.02,0.06,0.05,0.08,0.09c0.06,0.13,0.06,0.19,0,0.18c0.06,0.05,0.09,0.13,0.08,0.21  c-0.01,0.07-0.07,0.12-0.15,0.11c0,0-0.01,0-0.01,0c-0.05-0.01-0.1-0.02-0.15-0.05l-0.15-0.06c-0.06,0-0.11,0.02-0.15,0.06  c-0.04,0.06-0.08,0.12-0.11,0.18c-0.03,0.07-0.07,0.13-0.12,0.18c-0.15,0.11-0.34,0.15-0.52,0.11c0,0,0,0,0,0.06l-0.1,0.14  l-0.07,0.09c-0.06,0.07-0.1,0.15-0.12,0.24c0,0,0,0.06,0,0.14c0.01,0.06,0.01,0.12,0,0.18c0.09-0.02,0.18,0.03,0.2,0.12  C11.57,7.95,11.53,8,11.49,8c0.2-0.05,0.4-0.05,0.6,0c0.17,0.03,0.32,0.13,0.43,0.27c0.09-0.06,0.21-0.06,0.3,0  c0.09,0.08,0.15,0.19,0.17,0.31c0.03,0.1,0.07,0.19,0.14,0.27c0.05,0.07,0.13,0.09,0.21,0.06l0,0h0.07h0.06l0,0l0,0  c-0.05-0.05-0.09-0.1-0.11-0.17c-0.03-0.06-0.03-0.13,0-0.19c0.05-0.05,0.11-0.09,0.17-0.12c0.07-0.04,0.13-0.1,0.17-0.17  c0.03-0.09-0.02-0.18-0.1-0.22c-0.07-0.03-0.13-0.09-0.15-0.16c0.01-0.05,0.03-0.09,0.07-0.12c0.04-0.03,0.06-0.09,0.06-0.14  c0.01-0.04,0.01-0.09,0-0.13c-0.01-0.05-0.01-0.1,0-0.15c-0.01-0.04-0.01-0.07,0-0.11c0.11-0.03,0.23-0.03,0.34,0  c0.12,0.01,0.24,0.05,0.35,0.1l0.14,0.06l0.18,0.09c0.04,0.02,0.07,0.05,0.09,0.09h-0.03c0.05,0.04,0.08,0.09,0.09,0.15  c0.01,0.05-0.03,0.11-0.08,0.12c0.06-0.01,0.11-0.01,0.17,0c0.11,0.04,0.11,0.08,0,0.11h0.09h0.09h0.05l0,0l0,0h0.06V7.9l0.08-0.1  c0.02-0.03,0.04-0.04,0.07-0.05h0.06v0.06v0.07v0.06c0.03,0.04,0.06,0.07,0.1,0.1c0.04,0.03,0.08,0.07,0.1,0.11v0.16  c0.01,0.06,0.04,0.12,0.08,0.17c0.05,0.04,0.1,0.07,0.16,0.08h0.21c0.02,0.02,0.02,0.06,0,0.08c0.03-0.02,0.05-0.05,0.06-0.08  c0,0.08,0.03,0.15,0.07,0.22c0.04,0.05,0.11,0.08,0.18,0.07v0.23c-0.04,0.05-0.1,0.08-0.16,0.08L16.3,9  c-0.06,0.03-0.11,0.07-0.15,0.12c-0.05,0.03-0.09,0.08-0.1,0.14c-0.14-0.14-0.35-0.18-0.53-0.11c-0.18,0.02-0.36,0.06-0.54,0.12  c-0.09,0.04-0.16,0.09-0.23,0.16V9.5L14.7,9.61c0.01,0.02,0.01,0.03,0,0.05c0.06-0.02,0.11-0.05,0.14-0.1l0.1-0.1l0,0L14.87,9.43z   M13.17,18.56c-0.01-0.06-0.01-0.11,0-0.17c0-0.08,0.02-0.16,0.07-0.22c0.03-0.05,0.04-0.11,0.05-0.17  c-0.1-0.03-0.16-0.15-0.13-0.25c0-0.01,0-0.01,0.01-0.02c0.05-0.17,0.16-0.31,0.3-0.42c0.13-0.13,0.18-0.32,0.12-0.5  c-0.03-0.13-0.04-0.27-0.05-0.4c0.01-0.12,0.01-0.24,0-0.36c0.02,0.04,0.06,0.06,0.1,0.06c0.05,0.01,0.09,0.03,0.12,0.07L13.77,16  c0.01-0.04,0.03-0.08,0.06-0.12l0.09-0.08L14,15.76l0.09-0.07l0.12-0.09h0.12c0.03-0.03,0.08-0.03,0.11,0  c0.04,0.06,0.04,0.13,0,0.19c-0.05,0.09-0.05,0.15,0,0.18c0-0.05,0-0.09,0-0.14c0-0.06,0.02-0.12,0.06-0.16  c0.03-0.03,0.07-0.06,0.12-0.07c0.03-0.01,0.07-0.01,0.1,0l0.11,0.07c0.03,0.03,0.07,0.05,0.11,0.06c0.14,0.06,0.26,0.13,0.37,0.23  l0,0l0,0h0.06h0.06h0.14c0.03-0.01,0.06-0.01,0.09,0h0.08L15.87,16h0.08l0.11,0.07l0.13,0.08c0.03,0.02,0.06,0.05,0.08,0.09  c0.02,0.05,0.02,0.09,0,0.14l0.25,0.08h0.13c0.04-0.01,0.09-0.01,0.13,0c-0.96,1.05-2.25,1.76-3.65,2l0,0L13.17,18.56z" style="fill: rgb(46, 143, 99);" vector-effect="non-scaling-stroke"/></g></svg>